<?xml version="1.0" encoding="UTF-8" standalone="no"?>
<!-- Converted by misc2svg (http://www.network-science.de/tools/misc2svg/) -->

<svg
   xmlns:dc="http://purl.org/dc/elements/1.1/"
   xmlns:cc="http://creativecommons.org/ns#"
   xmlns:rdf="http://www.w3.org/1999/02/22-rdf-syntax-ns#"
   xmlns:svg="http://www.w3.org/2000/svg"
   xmlns="http://www.w3.org/2000/svg"
   xmlns:sodipodi="http://sodipodi.sourceforge.net/DTD/sodipodi-0.dtd"
   xmlns:inkscape="http://www.inkscape.org/namespaces/inkscape"
   width="450"
   height="270"
   viewBox="0 0 360 216"
   version="1.1"
   id="svg3210"
   inkscape:version="0.48.2 r9819"
   sodipodi:docname="kanban card background.svg">
  <metadata
     id="metadata3292">
    <rdf:RDF>
      <cc:Work
         rdf:about="">
        <dc:format>image/svg+xml</dc:format>
        <dc:type
           rdf:resource="http://purl.org/dc/dcmitype/StillImage" />
        <dc:title></dc:title>
      </cc:Work>
    </rdf:RDF>
  </metadata>
  <sodipodi:namedview
     pagecolor="#ffffff"
     bordercolor="#666666"
     borderopacity="1"
     objecttolerance="10"
     gridtolerance="10"
     guidetolerance="10"
     inkscape:pageopacity="0"
     inkscape:pageshadow="2"
     inkscape:window-width="2560"
     inkscape:window-height="1278"
     id="namedview3290"
     showgrid="false"
     fit-margin-top="0"
     fit-margin-left="0"
     fit-margin-right="0"
     fit-margin-bottom="0"
     inkscape:zoom="3.2296296"
     inkscape:cx="172.5172"
     inkscape:cy="135"
     inkscape:window-x="0"
     inkscape:window-y="0"
     inkscape:window-maximized="0"
     inkscape:current-layer="g3218" />
  <defs
     id="defs3212">
    <clipPath
       id="clip1">
      <path
         d="M 0,270 450,270 450,0 0,0 0,270 z m 0,0"
         id="path3215"
         inkscape:connector-curvature="0" />
    </clipPath>
  </defs>
  <g
     id="misc2svg"
     transform="scale(0.8,0.8)">
    <g
       clip-path="url(#clip1)"
       clip-rule="evenodd"
       id="g3218">
      <path
         style="fill:#e6e6e6;fill-opacity:1;fill-rule:nonzero;stroke:none"
         d="m 278.01172,234.71875 8.96484,-5.17578 c 1.50781,-0.85938 2.875,-1.15235 4.10156,-0.87891 1.23438,0.27344 2.16797,0.95703 2.79297,2.05078 0.53125,0.91407 0.69141,1.86328 0.48828,2.85157 -0.13281,0.65234 -0.48828,1.3164 -1.07421,1.99218 1.26171,-0.375 2.34375,-0.3789 3.24218,-0.0195 0.91016,0.35156 1.65235,1.01563 2.22657,1.99219 0.46875,0.8125 0.6914,1.64062 0.68359,2.5 0,0.85156 -0.21484,1.64062 -0.64453,2.38281 -0.27344,0.46875 -0.78125,0.99219 -1.52344,1.5625 -1.00391,0.77344 -1.67969,1.25781 -2.03125,1.46485 l -8.28125,4.76562 -8.94531,-15.48828 z m 8.35937,3.28125 2.08985,-1.19141 c 0.74218,-0.42968 1.17968,-0.85937 1.32812,-1.28906 0.14063,-0.42969 0.0703,-0.88281 -0.21484,-1.36719 -0.26172,-0.45312 -0.61328,-0.72265 -1.05469,-0.80078 -0.42969,-0.0859 -1.01172,0.0742 -1.73828,0.48828 l -2.10938,1.21094 1.69922,2.94922 z m 3.51563,6.07422 2.4414,-1.40625 c 0.82813,-0.48047 1.33204,-0.96094 1.50391,-1.44531 0.16797,-0.49219 0.10547,-0.98829 -0.17578,-1.48438 -0.26563,-0.44141 -0.64453,-0.70703 -1.15234,-0.80078 -0.4961,-0.0859 -1.16016,0.10937 -1.99219,0.58594 l -2.44141,1.40625 1.81641,3.14453 z m 0,0"
         id="path3222"
         inkscape:connector-curvature="0" />
      <path
         style="fill:#e6e6e6;fill-opacity:1;fill-rule:nonzero;stroke:none"
         d="m 294.88672,224.96875 4.78515,-2.75391 6.73829,11.66016 7.48046,-4.31641 2.20704,3.82813 -12.26563,7.07031 -8.94531,-15.48828 z m 0,0"
         id="path3224"
         inkscape:connector-curvature="0" />
      <path
         style="fill:#e6e6e6;fill-opacity:1;fill-rule:nonzero;stroke:none"
         d="m 312.75391,224.92969 c -1.45704,-2.52344 -1.88672,-4.89063 -1.28907,-7.10938 0.60157,-2.22656 2.16016,-4.0625 4.66797,-5.50781 2.57813,-1.49219 4.96485,-1.95313 7.16797,-1.36719 2.19922,0.57813 4.02344,2.10547 5.46875,4.58985 1.03906,1.82421 1.58594,3.49218 1.64063,5 0.0625,1.51171 -0.29297,2.92578 -1.07422,4.23828 -0.78125,1.32031 -2.03125,2.46875 -3.75,3.45703 -1.75,1.0039 -3.35547,1.55859 -4.82422,1.66015 -1.47266,0.10938 -2.91016,-0.23828 -4.31641,-1.03515 -1.40625,-0.79297 -2.63672,-2.09766 -3.6914,-3.92578 z m 4.80468,-2.71485 c 0.89844,1.5625 1.83594,2.51953 2.8125,2.8711 0.98828,0.34375 1.98047,0.22656 2.98828,-0.35157 1.01563,-0.59375 1.60938,-1.39062 1.79688,-2.38281 0.17969,-1 -0.23047,-2.36719 -1.23047,-4.10156 -0.84766,-1.45313 -1.75781,-2.35156 -2.73437,-2.69531 -0.97657,-0.33594 -1.96875,-0.21485 -2.96875,0.37109 -0.97657,0.5625 -1.5625,1.35547 -1.75782,2.38281 -0.18359,1.03125 0.17969,2.33203 1.09375,3.90625 z m 0,0"
         id="path3226"
         inkscape:connector-curvature="0" />
      <path
         style="fill:#e6e6e6;fill-opacity:1;fill-rule:nonzero;stroke:none"
         d="m 342.51172,209.67187 4.92187,-1.15234 c 0.40235,1.34375 0.52735,2.58984 0.3711,3.73047 -0.15625,1.13281 -0.56641,2.16406 -1.23047,3.08594 -0.66406,0.91406 -1.69531,1.77343 -3.08594,2.57812 -1.67969,0.96875 -3.19922,1.51563 -4.55078,1.64063 -1.35938,0.13281 -2.77344,-0.19532 -4.25781,-0.97657 -1.46875,-0.78125 -2.76563,-2.13281 -3.88672,-4.0625 -1.48438,-2.57812 -1.9375,-4.94531 -1.36719,-7.10937 0.5625,-2.15625 2.08984,-3.96484 4.58984,-5.41016 1.95313,-1.11718 3.71094,-1.60547 5.27344,-1.46484 1.57031,0.14844 3.10938,0.87891 4.60938,2.20703 l -3.69141,3.37891 c -0.41797,-0.39063 -0.76953,-0.65625 -1.05469,-0.80078 -0.48437,-0.19532 -0.97656,-0.27735 -1.48437,-0.25391 -0.50781,0.0312 -0.9961,0.17578 -1.46485,0.44922 -1.09375,0.625 -1.67578,1.54297 -1.73828,2.7539 -0.0664,0.89844 0.29688,2.04688 1.09375,3.4375 1,1.71875 1.94141,2.75 2.83203,3.08594 0.88282,0.34375 1.80079,0.23438 2.75391,-0.3125 0.91016,-0.53125 1.44922,-1.1914 1.62109,-1.97265 0.16407,-0.78125 0.082,-1.72266 -0.2539,-2.83204 z m 0,0"
         id="path3228"
         inkscape:connector-curvature="0" />
      <path
         style="fill:#e6e6e6;fill-opacity:1;fill-rule:nonzero;stroke:none"
         d="m 343.78125,196.71875 4.78516,-2.77344 3.3789,5.83985 1.66016,-8.73047 6.34765,-3.67188 -2.24609,9.0625 11.44531,6.26953 -5.8789,3.39844 -6.95313,-4.47266 -0.99609,4.00391 2.1875,3.78906 -4.78516,2.77344 -8.94531,-15.48828 z m 0,0"
         id="path3230"
         inkscape:connector-curvature="0" />
      <path
         style="fill:#e6e6e6;fill-opacity:1;fill-rule:nonzero;stroke:none"
         d="m 361.88672,186.36328 12.83203,-7.42187 1.91406,3.30078 -8.04687,4.64843 1.42578,2.46094 7.46094,-4.3164 1.8164,3.16406 -7.46094,4.3164 1.75782,3.04688 8.28125,-4.78516 2.03125,3.51563 -13.06641,7.55859 -8.94531,-15.48828 z m 0,0"
         id="path3232"
         inkscape:connector-curvature="0" />
      <path
         style="fill:#e6e6e6;fill-opacity:1;fill-rule:nonzero;stroke:none"
         d="m 377.46484,177.30469 7.10938,-4.10157 c 1.40625,-0.80468 2.64453,-1.26953 3.73047,-1.38671 1.07812,-0.12891 2.10937,0 3.08593,0.39062 0.97657,0.37891 1.85938,0.97266 2.65625,1.77734 0.80469,0.79688 1.51563,1.72657 2.12891,2.79297 0.94922,1.65625 1.49609,3.04297 1.64063,4.16016 0.15625,1.125 0.0781,2.1875 -0.23438,3.20312 -0.3125,1.01563 -0.79687,1.84375 -1.44531,2.48047 -0.89844,0.88672 -1.77344,1.57813 -2.61719,2.07032 l -7.10937,4.10156 -8.94532,-15.48828 z m 6.81641,0.74218 4.88281,8.47657 1.17188,-0.6836 c 1,-0.57031 1.64453,-1.09375 1.93359,-1.5625 0.29688,-0.48047 0.40234,-1.0664 0.3125,-1.75781 -0.0781,-0.6875 -0.48047,-1.65234 -1.19141,-2.89062 -0.9375,-1.625 -1.85156,-2.58985 -2.73437,-2.89063 -0.89063,-0.29687 -1.94922,-0.0898 -3.18359,0.625 l -1.19141,0.68359 z m 0,0"
         id="path3234"
         inkscape:connector-curvature="0" />
      <path
         style="fill:#e6e6e6;fill-opacity:1;fill-rule:nonzero;stroke:none"
         d="m 34.554688,238.38672 4.316406,-2.5 8.046875,13.94531 -4.316407,2.5 -8.046874,-13.94531 z m 0,0"
         id="path3236"
         inkscape:connector-curvature="0" />
      <path
         style="fill:#e6e6e6;fill-opacity:1;fill-rule:nonzero;stroke:none"
         d="m 41.898438,234.08984 4.042968,-2.32422 9.707032,4.6875 -4.453126,-7.71484 4.0625,-2.34375 8.046876,13.94531 -4.0625,2.34375 -9.648438,-4.64843 4.414062,7.65625 -4.0625,2.34375 -8.046874,-13.94532 z m 0,0"
         id="path3238"
         inkscape:connector-curvature="0" />
      <path
         style="fill:#e6e6e6;fill-opacity:1;fill-rule:nonzero;stroke:none"
         d="m 57.152344,225.30078 13.105468,-7.55859 1.992188,3.4375 -4.394531,2.53906 6.054687,10.50781 -4.316406,2.48047 -6.054688,-10.50781 -4.394531,2.53906 -1.992187,-3.4375 z m 0,0"
         id="path3240"
         inkscape:connector-curvature="0" />
      <path
         style="fill:#e6e6e6;fill-opacity:1;fill-rule:nonzero;stroke:none"
         d="m 72.253906,216.60937 11.542969,-6.66015 1.71875,2.96875 -7.226563,4.17969 1.269532,2.20703 6.699218,-3.88672 1.660157,2.87109 -6.699219,3.88672 1.582031,2.73438 7.441407,-4.29688 1.816406,3.16406 -11.757813,6.77735 -8.046875,-13.94532 z m 0,0"
         id="path3242"
         inkscape:connector-curvature="0" />
      <path
         style="fill:#e6e6e6;fill-opacity:1;fill-rule:nonzero;stroke:none"
         d="m 94.359375,222.39062 -8.046875,-13.94531 7.167969,-4.14062 c 1.339843,-0.76563 2.425781,-1.23438 3.261719,-1.40625 0.828124,-0.17969 1.644531,-0.0859 2.441406,0.27343 0.792968,0.36719 1.445316,0.99219 1.953126,1.875 0.45312,0.78125 0.66797,1.55469 0.64453,2.30469 -0.0156,0.74219 -0.20312,1.45313 -0.56641,2.12891 -0.22265,0.44531 -0.62109,0.92578 -1.1914,1.44531 0.60937,-0.12891 1.07812,-0.17578 1.40625,-0.13672 0.23437,0.0312 0.60937,0.13672 1.13281,0.33203 0.51563,0.19532 0.89063,0.36719 1.11328,0.50782 l 4.41406,2.85156 -4.88281,2.8125 -4.765624,-2.92969 c -0.601562,-0.39062 -1.066406,-0.60547 -1.386718,-0.64453 -0.445313,-0.0234 -0.859376,0.0742 -1.25,0.29297 l -0.371094,0.21484 3.261718,5.66406 -4.335937,2.5 z m -0.449219,-10.80078 1.816406,-1.03515 c 0.195313,-0.11719 0.53125,-0.39844 1.015626,-0.85938 0.257812,-0.21875 0.410156,-0.5 0.449218,-0.83984 0.05078,-0.33594 -0.01172,-0.65235 -0.175781,-0.95703 -0.265625,-0.45313 -0.605469,-0.71094 -1.035156,-0.78125 -0.429688,-0.0781 -1.035157,0.10937 -1.816407,0.54687 l -1.894531,1.09375 1.640625,2.83203 z m 0,0"
         id="path3244"
         inkscape:connector-curvature="0" />
      <path
         style="fill:#e6e6e6;fill-opacity:1;fill-rule:nonzero;stroke:none"
         d="m 109.48438,213.64062 -8.04688,-13.94531 7.16797,-4.14062 c 1.33984,-0.76563 2.42578,-1.23438 3.26172,-1.40625 0.82812,-0.17969 1.64453,-0.0859 2.4414,0.27343 0.79297,0.36719 1.44532,0.99219 1.95313,1.875 0.45312,0.78125 0.66797,1.55469 0.64453,2.30469 -0.0156,0.74219 -0.20312,1.45313 -0.56641,2.12891 -0.22265,0.44531 -0.62109,0.92578 -1.1914,1.44531 0.60937,-0.12891 1.07812,-0.17578 1.40625,-0.13672 0.23437,0.0312 0.60937,0.13672 1.13281,0.33203 0.51563,0.19532 0.89063,0.36719 1.11328,0.50782 l 4.41406,2.85156 -4.88281,2.8125 -4.76562,-2.92969 c -0.60157,-0.39062 -1.06641,-0.60547 -1.38672,-0.64453 -0.44531,-0.0234 -0.85938,0.0742 -1.25,0.29297 l -0.3711,0.21484 3.26172,5.66406 -4.33593,2.5 z m -0.44922,-10.80078 1.8164,-1.03515 c 0.19532,-0.11719 0.53125,-0.39844 1.01563,-0.85938 0.25781,-0.21875 0.41015,-0.5 0.44922,-0.83984 0.0508,-0.33594 -0.0117,-0.65235 -0.17578,-0.95703 -0.26563,-0.45313 -0.60547,-0.71094 -1.03516,-0.78125 -0.42969,-0.0781 -1.03516,0.10937 -1.81641,0.54687 l -1.89453,1.09375 1.64063,2.83203 z m 0,0"
         id="path3246"
         inkscape:connector-curvature="0" />
      <path
         style="fill:#e6e6e6;fill-opacity:1;fill-rule:nonzero;stroke:none"
         d="m 125.33594,186 4.29687,-2.48047 4.80469,8.32031 c 0.46875,0.82032 0.78516,1.66797 0.95703,2.53907 0.16797,0.875 0.13672,1.74609 -0.0977,2.61718 -0.23437,0.85938 -0.58593,1.58203 -1.05468,2.16797 -0.66407,0.79688 -1.58203,1.53125 -2.75391,2.20703 -0.69141,0.39063 -1.46484,0.76953 -2.32422,1.13282 -0.85156,0.36718 -1.62109,0.5664 -2.32422,0.60546 -0.6914,0.0312 -1.41796,-0.0859 -2.16796,-0.35156 -0.74219,-0.27344 -1.36329,-0.63281 -1.85547,-1.09375 -0.76563,-0.72656 -1.34766,-1.42969 -1.73828,-2.10937 l -4.80469,-8.32032 4.29687,-2.48046 4.92188,8.51562 c 0.42969,0.75781 0.97656,1.22656 1.64062,1.40625 0.67188,0.18359 1.38672,0.0586 2.12891,-0.37109 0.74219,-0.42969 1.19922,-0.97657 1.38672,-1.64063 0.17968,-0.66406 0.0469,-1.375 -0.39063,-2.14844 L 125.33594,186 z m 0,0"
         id="path3248"
         inkscape:connector-curvature="0" />
      <path
         style="fill:#e6e6e6;fill-opacity:1;fill-rule:nonzero;stroke:none"
         d="m 132.48437,181.87891 7.16797,-4.14063 c 1.5625,-0.89844 2.94141,-1.19531 4.14063,-0.89844 1.21094,0.28907 2.20703,1.11328 2.98828,2.48047 0.82031,1.40625 1.03516,2.75391 0.64453,4.04297 -0.39062,1.27734 -1.45703,2.41797 -3.18359,3.41797 l -2.36328,1.36719 2.98828,5.17578 -4.33594,2.5 -8.04688,-13.94531 z m 7.77344,3.4375 1.05469,-0.625 c 0.82031,-0.46875 1.3125,-0.94141 1.48437,-1.42579 0.16407,-0.47656 0.1211,-0.9414 -0.13671,-1.38671 -0.25,-0.44141 -0.60547,-0.72657 -1.07422,-0.85938 -0.46875,-0.14062 -1.10157,0.0156 -1.89453,0.46875 l -1.23047,0.72266 1.79687,3.10547 z m 0,0"
         id="path3250"
         inkscape:connector-curvature="0" />
      <path
         style="fill:#e6e6e6;fill-opacity:1;fill-rule:nonzero;stroke:none"
         d="m 145.65234,174.30078 13.10547,-7.55859 1.99219,3.4375 -4.39453,2.53906 6.05469,10.50781 -4.31641,2.48047 -6.05469,-10.50781 -4.39453,2.53906 -1.99219,-3.4375 z m 0,0"
         id="path3252"
         inkscape:connector-curvature="0" />
      <path
         style="fill:#e6e6e6;fill-opacity:1;fill-rule:nonzero;stroke:none"
         d="m 160.62891,165.60937 11.54296,-6.66015 1.71875,2.96875 -7.22656,4.17969 1.26953,2.20703 6.69922,-3.88672 1.66016,2.87109 -6.69922,3.88672 1.58203,2.73438 7.44141,-4.29688 1.8164,3.16406 -11.75781,6.77735 -8.04687,-13.94532 z m 0,0"
         id="path3254"
         inkscape:connector-curvature="0" />
      <path
         style="fill:#e6e6e6;fill-opacity:1;fill-rule:nonzero;stroke:none"
         d="m 174.8125,157.44531 6.40625,-3.6914 c 1.25781,-0.72657 2.375,-1.14454 3.33984,-1.25 0.97657,-0.11719 1.89844,0 2.77344,0.35156 0.88281,0.35156 1.68359,0.88672 2.40234,1.60156 0.72657,0.71875 1.3711,1.55859 1.9336,2.51953 0.85937,1.48438 1.35156,2.73438 1.48437,3.75 0.12891,1.01563 0.0508,1.97266 -0.23437,2.8711 -0.27344,0.89843 -0.71485,1.64062 -1.3086,2.22656 -0.8125,0.80859 -1.59375,1.43359 -2.34375,1.875 l -6.40625,3.6914 -8.04687,-13.94531 z m 6.13281,0.66406 4.41406,7.63672 1.05469,-0.60547 c 0.89844,-0.51562 1.47656,-0.98437 1.73828,-1.40625 0.25782,-0.42968 0.35547,-0.94531 0.29297,-1.5625 -0.0703,-0.625 -0.42578,-1.49218 -1.07422,-2.61718 -0.84765,-1.48438 -1.67578,-2.35157 -2.48047,-2.61719 -0.8125,-0.27344 -1.76562,-0.0859 -2.87109,0.54687 l -1.07422,0.625 z m 0,0"
         id="path3256"
         inkscape:connector-curvature="0" />
      <path
         style="fill:none;stroke:#000000;stroke-width:1;stroke-linecap:butt;stroke-linejoin:round;stroke-miterlimit:10;stroke-opacity:1"
         d="m 24.7,60.6 -10,0 0,20.6 19.9,0 0,-20.6 -9.9,0 z m 0,0"
         transform="matrix(1.25,0,0,-1.25,0,270)"
         id="path3258"
         inkscape:connector-curvature="0" />
      <path
         style="fill:#b3b3b3;fill-opacity:1;fill-rule:nonzero;stroke:none"
         d="m 33.003906,189.125 -1.972656,0 0,-12.59766 c -0.484375,0.45703 -1.109375,0.91407 -1.875,1.36719 -0.773438,0.44531 -1.464844,0.78125 -2.089844,1.01563 l 0,-1.91407 c 1.105469,-0.51953 2.074219,-1.15234 2.910156,-1.89453 0.828126,-0.74219 1.414063,-1.45312 1.757813,-2.14844 l 1.269531,0 0,16.17188 z m 0,0"
         id="path3260"
         inkscape:connector-curvature="0" />
      <path
         style="fill:none;stroke:#000000;stroke-width:1;stroke-linecap:butt;stroke-linejoin:round;stroke-miterlimit:10;stroke-opacity:1"
         d="m 24.7,37.2 -10,0 0,20.5 19.9,0 0,-20.5 -9.9,0 z m 0,0"
         transform="matrix(1.25,0,0,-1.25,0,270)"
         id="path3262"
         inkscape:connector-curvature="0" />
      <path
         style="fill:#b3b3b3;fill-opacity:1;fill-rule:nonzero;stroke:none"
         d="m 35.953125,216.60547 0,1.89453 -10.644531,0 c -0.01563,-0.47656 0.0625,-0.9375 0.234375,-1.36719 0.273437,-0.72656 0.703125,-1.44531 1.289062,-2.14844 0.597657,-0.70312 1.464844,-1.51562 2.597657,-2.4414 1.742187,-1.42969 2.921874,-2.5625 3.535156,-3.39844 0.625,-0.84375 0.9375,-1.64062 0.9375,-2.38281 0,-0.79297 -0.285156,-1.45703 -0.839844,-1.99219 -0.5625,-0.53125 -1.289062,-0.80078 -2.1875,-0.80078 -0.96875,0 -1.734375,0.28906 -2.304688,0.85937 -0.5625,0.57813 -0.851562,1.36329 -0.859374,2.36329 l -2.03125,-0.21485 c 0.140624,-1.50781 0.664062,-2.66015 1.5625,-3.45703 0.90625,-0.79297 2.132812,-1.19141 3.671874,-1.19141 1.53125,0 2.753907,0.42969 3.652344,1.28907 0.910156,0.85937 1.367188,1.92187 1.367188,3.18359 0,0.64063 -0.136719,1.26953 -0.410156,1.89453 -0.265626,0.625 -0.699219,1.28516 -1.308594,1.97266 -0.613282,0.6914 -1.628906,1.63672 -3.046875,2.83203 -1.1875,1.00781 -1.949219,1.67969 -2.285157,2.03125 -0.34375,0.35156 -0.617187,0.71094 -0.820312,1.07422 l 7.890625,0 z m 0,0"
         id="path3264"
         inkscape:connector-curvature="0" />
      <path
         style="fill:none;stroke:#000000;stroke-width:1;stroke-linecap:butt;stroke-linejoin:round;stroke-miterlimit:10;stroke-opacity:1"
         d="m 24.7,13.7 -10,0 0,20.5 19.9,0 0,-20.5 -9.9,0 z m 0,0"
         transform="matrix(1.25,0,0,-1.25,0,270)"
         id="path3266"
         inkscape:connector-curvature="0" />
      <path
         style="fill:#b3b3b3;fill-opacity:1;fill-rule:nonzero;stroke:none"
         d="m 25.5625,243.61719 1.992188,-0.25391 c 0.21875,1.12109 0.605468,1.92969 1.152343,2.42188 0.546875,0.49609 1.210938,0.74218 1.992188,0.74218 0.9375,0 1.722656,-0.3164 2.363281,-0.95703 0.632812,-0.64844 0.957031,-1.44922 0.957031,-2.40234 0,-0.91016 -0.300781,-1.66016 -0.898437,-2.2461 -0.585938,-0.59375 -1.339844,-0.89843 -2.246094,-0.89843 -0.382812,0 -0.851562,0.0781 -1.40625,0.23437 l 0.214844,-1.73828 c 0.128906,0.0156 0.238281,0.0195 0.332031,0.0195 0.828125,0 1.585937,-0.21875 2.265625,-0.66406 0.671875,-0.4375 1.015625,-1.11719 1.015625,-2.03125 0,-0.72656 -0.25,-1.32813 -0.742187,-1.79688 -0.5,-0.47656 -1.128907,-0.72265 -1.894532,-0.72265 -0.769531,0 -1.417968,0.24609 -1.933594,0.72265 -0.507812,0.48438 -0.835937,1.21094 -0.976562,2.1875 l -1.972656,-0.35156 c 0.234375,-1.32812 0.78125,-2.35156 1.640625,-3.08594 0.859375,-0.72656 1.925781,-1.09375 3.203125,-1.09375 0.871094,0 1.679687,0.19141 2.421875,0.56641 0.742187,0.37891 1.308593,0.89453 1.699219,1.54297 0.390624,0.65625 0.585937,1.34375 0.585937,2.07031 0,0.70313 -0.191406,1.34375 -0.566406,1.91406 -0.367188,0.5625 -0.917969,1.01172 -1.660157,1.34766 0.945313,0.22266 1.683594,0.68359 2.207032,1.38672 0.53125,0.69531 0.800781,1.55469 0.800781,2.57812 0,1.40625 -0.515625,2.60938 -1.542969,3.59375 -1.015625,0.97657 -2.304687,1.46485 -3.867187,1.46485 -1.421875,0 -2.597657,-0.41797 -3.535157,-1.26953 -0.929687,-0.84375 -1.460937,-1.9375 -1.601562,-3.28125 z m 0,0"
         id="path3268"
         inkscape:connector-curvature="0" />
      <path
         style="fill:none;stroke:#000000;stroke-width:1;stroke-linecap:butt;stroke-linejoin:round;stroke-miterlimit:10;stroke-opacity:1"
         d="m 334.3,60.6 -10,0 0,20.6 20,0 0,-20.6 -10,0 z m 0,0"
         transform="matrix(1.25,0,0,-1.25,0,270)"
         id="path3270"
         inkscape:connector-curvature="0" />
      <path
         style="fill:#b3b3b3;fill-opacity:1;fill-rule:nonzero;stroke:none"
         d="m 420.00391,189.125 -1.97266,0 0,-12.59766 c -0.48438,0.45703 -1.10938,0.91407 -1.875,1.36719 -0.77344,0.44531 -1.46484,0.78125 -2.08984,1.01563 l 0,-1.91407 c 1.10546,-0.51953 2.07421,-1.15234 2.91015,-1.89453 0.82813,-0.74219 1.41406,-1.45312 1.75781,-2.14844 l 1.26954,0 0,16.17188 z m 0,0"
         id="path3272"
         inkscape:connector-curvature="0" />
      <path
         style="fill:none;stroke:#000000;stroke-width:1;stroke-linecap:butt;stroke-linejoin:round;stroke-miterlimit:10;stroke-opacity:1"
         d="m 334.3,37.2 -10,0 0,20.5 20,0 0,-20.5 -10,0 z m 0,0"
         transform="matrix(1.25,0,0,-1.25,0,270)"
         id="path3274"
         inkscape:connector-curvature="0" />
      <path
         style="fill:#b3b3b3;fill-opacity:1;fill-rule:nonzero;stroke:none"
         d="m 422.95312,216.60547 0,1.89453 -10.64453,0 c -0.0156,-0.47656 0.0625,-0.9375 0.23438,-1.36719 0.27344,-0.72656 0.70312,-1.44531 1.28906,-2.14844 0.59766,-0.70312 1.46484,-1.51562 2.59766,-2.4414 1.74218,-1.42969 2.92187,-2.5625 3.53515,-3.39844 0.625,-0.84375 0.9375,-1.64062 0.9375,-2.38281 0,-0.79297 -0.28515,-1.45703 -0.83984,-1.99219 -0.5625,-0.53125 -1.28906,-0.80078 -2.1875,-0.80078 -0.96875,0 -1.73438,0.28906 -2.30469,0.85937 -0.5625,0.57813 -0.85156,1.36329 -0.85937,2.36329 l -2.03125,-0.21485 c 0.14062,-1.50781 0.66406,-2.66015 1.5625,-3.45703 0.90625,-0.79297 2.13281,-1.19141 3.67187,-1.19141 1.53125,0 2.75391,0.42969 3.65235,1.28907 0.91015,0.85937 1.36718,1.92187 1.36718,3.18359 0,0.64063 -0.13672,1.26953 -0.41015,1.89453 -0.26563,0.625 -0.69922,1.28516 -1.3086,1.97266 -0.61328,0.6914 -1.6289,1.63672 -3.04687,2.83203 -1.1875,1.00781 -1.94922,1.67969 -2.28516,2.03125 -0.34375,0.35156 -0.61719,0.71094 -0.82031,1.07422 l 7.89062,0 z m 0,0"
         id="path3276"
         inkscape:connector-curvature="0" />
      <path
         style="fill:none;stroke:#000000;stroke-width:1;stroke-linecap:butt;stroke-linejoin:round;stroke-miterlimit:10;stroke-opacity:1"
         d="m 334.3,13.7 -9.9,0 0,20.5 19.9,0 0,-20.5 -10,0 z m 0,0"
         transform="matrix(1.25,0,0,-1.25,0,270)"
         id="path3278"
         inkscape:connector-curvature="0" />
      <path
         style="fill:#b3b3b3;fill-opacity:1;fill-rule:nonzero;stroke:none"
         d="m 412.5625,243.61719 1.99219,-0.25391 c 0.21875,1.12109 0.60547,1.92969 1.15234,2.42188 0.54688,0.49609 1.21094,0.74218 1.99219,0.74218 0.9375,0 1.72265,-0.3164 2.36328,-0.95703 0.63281,-0.64844 0.95703,-1.44922 0.95703,-2.40234 0,-0.91016 -0.30078,-1.66016 -0.89844,-2.2461 -0.58593,-0.59375 -1.33984,-0.89843 -2.24609,-0.89843 -0.38281,0 -0.85156,0.0781 -1.40625,0.23437 l 0.21484,-1.73828 c 0.12891,0.0156 0.23828,0.0195 0.33203,0.0195 0.82813,0 1.58594,-0.21875 2.26563,-0.66406 0.67187,-0.4375 1.01562,-1.11719 1.01562,-2.03125 0,-0.72656 -0.25,-1.32813 -0.74218,-1.79688 -0.5,-0.47656 -1.12891,-0.72265 -1.89453,-0.72265 -0.76954,0 -1.41797,0.24609 -1.9336,0.72265 -0.50781,0.48438 -0.83594,1.21094 -0.97656,2.1875 l -1.97266,-0.35156 c 0.23438,-1.32812 0.78125,-2.35156 1.64063,-3.08594 0.85937,-0.72656 1.92578,-1.09375 3.20312,-1.09375 0.8711,0 1.67969,0.19141 2.42188,0.56641 0.74219,0.37891 1.30859,0.89453 1.69922,1.54297 0.39062,0.65625 0.58593,1.34375 0.58593,2.07031 0,0.70313 -0.1914,1.34375 -0.5664,1.91406 -0.36719,0.5625 -0.91797,1.01172 -1.66016,1.34766 0.94531,0.22266 1.6836,0.68359 2.20703,1.38672 0.53125,0.69531 0.80078,1.55469 0.80078,2.57812 0,1.40625 -0.51562,2.60938 -1.54296,3.59375 -1.01563,0.97657 -2.30469,1.46485 -3.86719,1.46485 -1.42188,0 -2.59766,-0.41797 -3.53516,-1.26953 -0.92969,-0.84375 -1.46094,-1.9375 -1.60156,-3.28125 z m 0,0"
         id="path3280"
         inkscape:connector-curvature="0" />
      <path
         style="fill:none;stroke:#000000;stroke-width:1;stroke-linecap:butt;stroke-linejoin:round;stroke-miterlimit:10;stroke-opacity:1"
         d="m 39.6,61.2 280.8,0"
         transform="matrix(1.25,0,0,-1.25,0,270)"
         id="path3282"
         inkscape:connector-curvature="0" />
      <path
         style="fill:none;stroke:#000000;stroke-width:1;stroke-linecap:butt;stroke-linejoin:round;stroke-miterlimit:10;stroke-opacity:1"
         d="m 39.6,38.2 280.8,0"
         transform="matrix(1.25,0,0,-1.25,0,270)"
         id="path3284"
         inkscape:connector-curvature="0" />
      <path
         style="fill:none;stroke:#000000;stroke-width:1;stroke-linecap:butt;stroke-linejoin:round;stroke-miterlimit:10;stroke-opacity:1"
         d="m 39.6,14.7 280.8,0"
         transform="matrix(1.25,0,0,-1.25,0,270)"
         id="path3286"
         inkscape:connector-curvature="0" />
      <path
         style="fill:#ffffff;fill-opacity:1;fill-rule:evenodd;stroke:none"
         d="m 225,256.5 -9,0 0,-90 18,0 0,90 -9,0 z m 0,0"
         id="path3288"
         inkscape:connector-curvature="0" />
    </g>
  </g>
</svg>
